<svg width="46" height="55" viewBox="0 0 46 55" fill="none" xmlns="http://www.w3.org/2000/svg">
<path d="M38.333 0C41.6467 0 44.333 2.68629 44.333 6V49C44.333 52.3137 41.6467 55 38.333 55H7C3.68629 55 1 52.3137 1 49V6C1 2.68629 3.68629 0 7 0H38.333ZM9.33301 4C6.57173 4.00018 4.33301 6.23869 4.33301 9V46C4.33301 48.7613 6.57174 50.9998 9.33301 51H36C38.7614 51 41 48.7614 41 46V9C41 6.23858 38.7614 4 36 4H9.33301Z" fill="black"/>
<path d="M9.13281 14C9.13281 12.8954 10.0282 12 11.1328 12H34.3326C35.4372 12 36.3326 12.8954 36.3326 14C36.3326 15.1046 35.4372 16 34.3326 16H11.1328C10.0282 16 9.13281 15.1046 9.13281 14Z" fill="black"/>
<path d="M9.33301 28C9.33301 26.8954 10.2284 26 11.333 26H34.5328C35.6374 26 36.5328 26.8954 36.5328 28C36.5328 29.1046 35.6374 30 34.5328 30H11.333C10.2284 30 9.33301 29.1046 9.33301 28Z" fill="black"/>
<path d="M9.33301 42C9.33301 40.8954 10.2284 40 11.333 40H34.5328C35.6374 40 36.5328 40.8954 36.5328 42C36.5328 43.1046 35.6374 44 34.5328 44H11.333C10.2284 44 9.33301 43.1046 9.33301 42Z" fill="black"/>
</svg>
