<?xml version="1.0" standalone="no"?>
<!DOCTYPE svg PUBLIC "-//W3C//DTD SVG 20010904//EN"
 "http://www.w3.org/TR/2001/REC-SVG-20010904/DTD/svg10.dtd">
<svg version="1.0" xmlns="http://www.w3.org/2000/svg"
 width="512.000000pt" height="512.000000pt" viewBox="0 0 512.000000 512.000000"
 preserveAspectRatio="xMidYMid meet">

<g transform="translate(0.000000,512.000000) scale(0.100000,-0.100000)"
fill="#000000" stroke="none">
<path d="M2300 4700 c-412 -88 -730 -383 -845 -783 -157 -551 126 -1128 660
-1341 149 -60 205 -70 405 -70 169 0 194 2 282 26 374 102 675 389 788 756 45
144 60 321 39 468 -66 479 -426 859 -899 948 -113 22 -320 20 -430 -4z m430
-241 c107 -25 246 -91 337 -163 374 -293 441 -838 150 -1221 -235 -309 -674
-424 -1028 -271 -121 52 -184 94 -269 176 -167 163 -254 352 -267 580 -19 349
157 659 469 824 184 99 392 124 608 75z"/>
<path d="M1475 2123 c-219 -47 -438 -193 -565 -378 -46 -68 -107 -202 -132
-292 -19 -69 -22 -111 -25 -378 -4 -290 -3 -301 17 -333 11 -18 37 -40 58 -49
50 -21 107 -2 139 46 22 33 23 40 23 293 0 195 4 278 16 336 49 245 248 452
496 519 56 15 160 17 956 22 l894 6 29 33 c23 26 29 42 29 78 0 39 -5 51 -34
80 l-34 34 -898 -1 c-759 -1 -910 -3 -969 -16z"/>
<path d="M4098 1838 c-292 -268 -763 -739 -1037 -1036 l-93 -102 -265 343
c-146 188 -275 350 -286 359 -74 58 -187 0 -187 -97 0 -41 15 -62 320 -456
176 -228 332 -422 347 -431 32 -21 88 -23 120 -5 13 7 51 44 84 82 231 263
770 808 1094 1108 89 82 166 162 173 179 18 43 7 95 -28 130 -24 23 -37 28
-80 28 -50 0 -51 0 -162 -102z"/>
</g>
</svg>
