<svg width="56" height="54" viewBox="0 0 56 54" fill="none" xmlns="http://www.w3.org/2000/svg">
<path d="M39 0C41.7614 2.57702e-07 44 2.23858 44 5V49C44 51.7614 41.7614 54 39 54H5C2.23858 54 1.28855e-07 51.7614 0 49V5C1.28855e-07 2.23858 2.23858 0 5 0H39ZM6 5C4.89543 5 4 5.89543 4 7V48C4 49.1046 4.89543 50 6 50H38C39.1046 50 40 49.1046 40 48V7C40 5.89543 39.1046 5 38 5H6Z" fill="#0A0A0A"/>
<path d="M51 10C53.7614 10 56 12.2386 56 15V49C56 51.7614 53.7614 54 51 54H40V50H50C51.1046 50 52 49.1046 52 48V16C52 14.8954 51.1046 14 50 14H40V10H51Z" fill="#0A0A0A"/>
<rect x="10" y="14" width="24" height="4" rx="2" fill="#0A0A0A"/>
<rect x="10" y="25" width="24" height="4" rx="2" fill="#0A0A0A"/>
<rect x="10" y="36" width="24" height="4" rx="2" fill="#0A0A0A"/>
</svg>
